<svg width="136" height="50" viewBox="0 0 136 50" fill="none" xmlns="http://www.w3.org/2000/svg">
<path d="M21.5 10L26.0777 18.9631L37.1924 20.0193L28.9068 26.6149L31.1985 36.2307L21.5 31.344L11.8015 36.2307L14.0932 26.6149L5.80757 20.0193L16.9223 18.9631L21.5 10Z" fill="black"/>
<path d="M43.664 29.072L39.416 14.792C39.304 14.424 39.184 14.16 39.056 14C38.928 13.824 38.704 13.664 38.384 13.52L38.096 13.4V13.16H44.456V13.4L43.952 13.592C43.584 13.736 43.336 13.912 43.208 14.12C43.08 14.328 43.072 14.616 43.184 14.984L45.8 24.968L48.632 16.592L48.08 14.888C47.968 14.552 47.864 14.296 47.768 14.12C47.672 13.944 47.512 13.8 47.288 13.688L46.76 13.4V13.16H52.784V13.4L52.04 13.688C51.72 13.8 51.536 13.968 51.488 14.192C51.456 14.4 51.496 14.672 51.608 15.008L54.656 25.208L57.536 15.2C57.648 14.816 57.688 14.48 57.656 14.192C57.624 13.904 57.424 13.696 57.056 13.568L56.552 13.4V13.16H59.888V13.4L59.264 13.64C58.944 13.752 58.72 13.928 58.592 14.168C58.464 14.408 58.352 14.704 58.256 15.056L54.272 29.072H52.616L49.016 17.792L45.32 29.072H43.664ZM60.6296 29V28.76L61.0616 28.592C61.3816 28.464 61.5976 28.304 61.7096 28.112C61.8376 27.92 61.9016 27.664 61.9016 27.344V14.816C61.9016 14.48 61.8376 14.216 61.7096 14.024C61.5976 13.832 61.3816 13.68 61.0616 13.568L60.6296 13.4V13.16H67.5176C69.4696 13.16 70.8776 13.52 71.7416 14.24C72.6056 14.944 73.0376 15.84 73.0376 16.928C73.0376 17.744 72.7176 18.488 72.0776 19.16C71.4536 19.816 70.3736 20.28 68.8376 20.552C70.5976 20.744 71.8856 21.208 72.7016 21.944C73.5176 22.664 73.9256 23.544 73.9256 24.584C73.9256 25.096 73.8136 25.616 73.5896 26.144C73.3656 26.656 72.9816 27.128 72.4376 27.56C71.9096 27.992 71.1816 28.344 70.2536 28.616C69.3256 28.872 68.1496 29 66.7256 29H60.6296ZM65.4536 20.528H66.4856C67.5576 20.528 68.3256 20.28 68.7896 19.784C69.2696 19.288 69.5096 18.424 69.5096 17.192C69.5096 15.912 69.2936 15 68.8616 14.456C68.4296 13.912 67.7256 13.64 66.7496 13.64H65.4536V20.528ZM65.4536 28.52H66.6536C67.8536 28.52 68.7416 28.2 69.3176 27.56C69.9096 26.92 70.2056 25.92 70.2056 24.56C70.2056 23.28 69.9256 22.368 69.3656 21.824C68.8056 21.28 67.8856 21.008 66.6056 21.008H65.4536V28.52ZM74.9253 29V28.76L75.2853 28.664C75.6053 28.568 75.8213 28.424 75.9333 28.232C76.0613 28.04 76.1253 27.792 76.1253 27.488V19.976C76.1253 19.624 76.0613 19.368 75.9333 19.208C75.8213 19.032 75.6053 18.912 75.2853 18.848L74.9253 18.752V18.512L79.0533 17.12L79.2933 17.36L79.5093 19.424V19.616C79.7333 19.168 80.0213 18.76 80.3733 18.392C80.7413 18.008 81.1413 17.696 81.5733 17.456C82.0213 17.216 82.4613 17.096 82.8933 17.096C83.5013 17.096 83.9653 17.264 84.2853 17.6C84.6053 17.936 84.7653 18.36 84.7653 18.872C84.7653 19.416 84.6053 19.84 84.2853 20.144C83.9813 20.432 83.6133 20.576 83.1813 20.576C82.5093 20.576 81.9173 20.24 81.4053 19.568L81.3573 19.52C81.1973 19.296 81.0133 19.176 80.8053 19.16C80.5973 19.128 80.4053 19.224 80.2293 19.448C80.0693 19.592 79.9333 19.768 79.8213 19.976C79.7253 20.168 79.6293 20.392 79.5333 20.648V27.344C79.5333 27.984 79.8133 28.384 80.3733 28.544L81.1413 28.76V29H74.9253ZM91.1681 17.096C92.2081 17.096 93.0961 17.312 93.8321 17.744C94.5681 18.16 95.1281 18.736 95.5121 19.472C95.9121 20.192 96.1121 21.016 96.1121 21.944C96.1121 22.12 96.1041 22.304 96.0881 22.496C96.0721 22.672 96.0401 22.832 95.9921 22.976H88.8401C88.8561 24.704 89.1601 25.952 89.7521 26.72C90.3601 27.472 91.2561 27.848 92.4401 27.848C93.2401 27.848 93.8881 27.72 94.3841 27.464C94.8801 27.208 95.3441 26.832 95.7761 26.336L96.0161 26.552C95.5201 27.432 94.8561 28.12 94.0241 28.616C93.2081 29.112 92.2241 29.36 91.0721 29.36C89.9361 29.36 88.9281 29.12 88.0481 28.64C87.1681 28.144 86.4801 27.44 85.9841 26.528C85.4881 25.616 85.2401 24.528 85.2401 23.264C85.2401 21.952 85.5281 20.84 86.1041 19.928C86.6801 19 87.4161 18.296 88.3121 17.816C89.2241 17.336 90.1761 17.096 91.1681 17.096ZM91.0961 17.576C90.6321 17.576 90.2321 17.72 89.8961 18.008C89.5761 18.28 89.3201 18.776 89.1281 19.496C88.9521 20.2 88.8561 21.2 88.8401 22.496H92.9441C93.1041 20.752 93.0401 19.496 92.7521 18.728C92.4641 17.96 91.9121 17.576 91.0961 17.576ZM97.3081 29V28.76L97.6441 28.664C98.2041 28.504 98.4841 28.112 98.4841 27.488V19.976C98.4841 19.624 98.4281 19.368 98.3161 19.208C98.2041 19.032 97.9881 18.912 97.6681 18.848L97.3081 18.752V18.512L101.412 17.12L101.652 17.36L101.844 18.8C102.404 18.304 103.036 17.896 103.74 17.576C104.444 17.256 105.14 17.096 105.828 17.096C106.884 17.096 107.692 17.384 108.252 17.96C108.828 18.536 109.116 19.416 109.116 20.6V27.512C109.116 28.136 109.42 28.528 110.028 28.688L110.244 28.76V29H104.58V28.76L104.892 28.664C105.452 28.488 105.732 28.096 105.732 27.488V19.832C105.732 18.808 105.22 18.296 104.196 18.296C103.492 18.296 102.724 18.648 101.892 19.352V27.512C101.892 28.136 102.172 28.528 102.732 28.688L102.948 28.76V29H97.3081ZM116.271 29.36C115.327 29.36 114.479 29.152 113.727 28.736C112.975 28.304 112.375 27.648 111.927 26.768C111.495 25.872 111.279 24.728 111.279 23.336C111.279 21.928 111.527 20.768 112.023 19.856C112.519 18.928 113.175 18.24 113.991 17.792C114.807 17.328 115.695 17.096 116.655 17.096C117.215 17.096 117.751 17.152 118.263 17.264C118.775 17.376 119.231 17.544 119.631 17.768V14.648C119.631 14.312 119.575 14.064 119.463 13.904C119.367 13.744 119.151 13.632 118.815 13.568L118.359 13.472V13.232L122.727 12.176L122.991 12.392L122.895 15.752V27.488C122.895 27.808 122.951 28.072 123.063 28.28C123.175 28.472 123.383 28.608 123.687 28.688L123.903 28.76V29L119.799 29.264L119.583 28.4C119.151 28.688 118.655 28.92 118.095 29.096C117.551 29.272 116.943 29.36 116.271 29.36ZM117.663 28.472C118.335 28.472 118.951 28.272 119.511 27.872V18.344C118.919 17.96 118.311 17.768 117.687 17.768C116.919 17.768 116.263 18.216 115.719 19.112C115.175 19.992 114.903 21.384 114.903 23.288C114.903 25.192 115.159 26.536 115.671 27.32C116.183 28.088 116.847 28.472 117.663 28.472Z" fill="black"/>
</svg>
