<svg width="136" height="50" viewBox="0 0 136 50" fill="none" xmlns="http://www.w3.org/2000/svg">
<path d="M21.5 10L26.0777 18.9631L37.1924 20.0193L28.9068 26.6149L31.1985 36.2307L21.5 31.344L11.8015 36.2307L14.0932 26.6149L5.80757 20.0193L16.9223 18.9631L21.5 10Z" fill="black"/>
<path d="M44.888 29V25.112H38.576V23.744L45.608 13.592H47.96V23.336H50.24V25.112H47.96V29H44.888ZM39.632 23.336H44.888V15.776L39.632 23.336ZM56.6021 29.432C55.7221 29.432 54.8261 29.32 53.9141 29.096C53.0021 28.888 52.2421 28.608 51.6341 28.256L51.7541 24.992H51.9941L52.7381 26.552C52.9621 27 53.2021 27.4 53.4581 27.752C53.7141 28.088 54.0661 28.352 54.5141 28.544C54.8341 28.704 55.1381 28.816 55.4261 28.88C55.7301 28.928 56.0661 28.952 56.4341 28.952C57.4101 28.952 58.1781 28.688 58.7381 28.16C59.3141 27.632 59.6021 26.952 59.6021 26.12C59.6021 25.336 59.4101 24.728 59.0261 24.296C58.6421 23.848 58.0261 23.416 57.1781 23L56.1941 22.568C54.8181 21.96 53.7381 21.264 52.9541 20.48C52.1861 19.68 51.8021 18.624 51.8021 17.312C51.8021 16.368 52.0421 15.552 52.5221 14.864C53.0181 14.176 53.6981 13.648 54.5621 13.28C55.4421 12.912 56.4661 12.728 57.6341 12.728C58.4821 12.728 59.2821 12.84 60.0341 13.064C60.8021 13.288 61.4661 13.592 62.0261 13.976L61.8821 16.856H61.6421L60.6581 15.056C60.3861 14.496 60.1141 14.104 59.8421 13.88C59.5701 13.64 59.2581 13.472 58.9061 13.376C58.6981 13.312 58.5061 13.272 58.3301 13.256C58.1541 13.224 57.9301 13.208 57.6581 13.208C56.8421 13.208 56.1541 13.448 55.5941 13.928C55.0341 14.392 54.7541 15.024 54.7541 15.824C54.7541 16.64 54.9701 17.296 55.4021 17.792C55.8341 18.272 56.4661 18.704 57.2981 19.088L58.4021 19.568C59.9381 20.24 61.0421 20.96 61.7141 21.728C62.3861 22.48 62.7221 23.456 62.7221 24.656C62.7221 26.064 62.1861 27.216 61.1141 28.112C60.0581 28.992 58.5541 29.432 56.6021 29.432ZM69.8617 29.36C68.7737 29.36 67.7817 29.128 66.8857 28.664C66.0057 28.184 65.3017 27.496 64.7737 26.6C64.2617 25.688 64.0057 24.576 64.0057 23.264C64.0057 21.968 64.2857 20.864 64.8457 19.952C65.4217 19.024 66.1817 18.32 67.1257 17.84C68.0857 17.344 69.1337 17.096 70.2697 17.096C71.1977 17.096 71.9817 17.248 72.6217 17.552C73.2617 17.856 73.7497 18.256 74.0857 18.752C74.4217 19.232 74.5897 19.736 74.5897 20.264C74.5897 20.712 74.4537 21.064 74.1817 21.32C73.9097 21.56 73.5577 21.68 73.1257 21.68C72.6617 21.68 72.2857 21.512 71.9977 21.176C71.7097 20.84 71.5417 20.4 71.4937 19.856C71.4777 19.504 71.4857 19.208 71.5177 18.968C71.5497 18.712 71.5497 18.456 71.5177 18.2C71.4537 17.928 71.3497 17.752 71.2057 17.672C71.0777 17.576 70.8937 17.528 70.6537 17.528C69.6777 17.528 68.9177 17.952 68.3737 18.8C67.8457 19.648 67.5817 21 67.5817 22.856C67.5817 24.472 67.8777 25.712 68.4697 26.576C69.0777 27.424 70.0057 27.848 71.2537 27.848C72.0057 27.848 72.6137 27.712 73.0777 27.44C73.5417 27.168 73.9897 26.76 74.4217 26.216L74.6617 26.408C74.2617 27.352 73.6457 28.08 72.8137 28.592C71.9817 29.104 70.9977 29.36 69.8617 29.36ZM81.7004 29.36C80.4844 29.36 79.4284 29.112 78.5324 28.616C77.6364 28.104 76.9404 27.384 76.4444 26.456C75.9644 25.528 75.7244 24.44 75.7244 23.192C75.7244 21.944 75.9804 20.864 76.4924 19.952C77.0204 19.04 77.7324 18.336 78.6284 17.84C79.5404 17.344 80.5644 17.096 81.7004 17.096C82.8364 17.096 83.8524 17.344 84.7484 17.84C85.6444 18.32 86.3484 19.016 86.8604 19.928C87.3884 20.84 87.6524 21.928 87.6524 23.192C87.6524 24.456 87.4044 25.552 86.9084 26.48C86.4284 27.392 85.7404 28.104 84.8444 28.616C83.9644 29.112 82.9164 29.36 81.7004 29.36ZM81.7004 28.88C82.2604 28.88 82.7084 28.72 83.0444 28.4C83.3804 28.08 83.6204 27.512 83.7644 26.696C83.9244 25.88 84.0044 24.728 84.0044 23.24C84.0044 21.736 83.9244 20.576 83.7644 19.76C83.6204 18.944 83.3804 18.376 83.0444 18.056C82.7084 17.736 82.2604 17.576 81.7004 17.576C81.1404 17.576 80.6844 17.736 80.3324 18.056C79.9964 18.376 79.7484 18.944 79.5884 19.76C79.4444 20.576 79.3724 21.736 79.3724 23.24C79.3724 24.728 79.4444 25.88 79.5884 26.696C79.7484 27.512 79.9964 28.08 80.3324 28.4C80.6844 28.72 81.1404 28.88 81.7004 28.88ZM88.4722 34.52V34.28L88.7602 34.184C89.3522 34.024 89.6482 33.64 89.6482 33.032V19.976C89.6482 19.624 89.5842 19.36 89.4562 19.184C89.3442 19.008 89.1282 18.888 88.8082 18.824L88.4722 18.752V18.512L92.5522 17.12L92.7922 17.36L93.0082 18.104C93.5362 17.784 94.1202 17.536 94.7602 17.36C95.4162 17.184 96.0882 17.096 96.7762 17.096C98.1522 17.096 99.2402 17.624 100.04 18.68C100.856 19.72 101.264 21.216 101.264 23.168C101.264 25.088 100.816 26.6 99.9202 27.704C99.0402 28.808 97.7922 29.36 96.1762 29.36C94.9122 29.36 93.8482 29.176 92.9842 28.808V32.96C92.9842 33.6 93.2722 34 93.8482 34.16L94.3042 34.28V34.52H88.4722ZM95.0242 28.664C95.8242 28.664 96.4562 28.248 96.9202 27.416C97.4002 26.584 97.6402 25.2 97.6402 23.264C97.6402 21.328 97.4162 19.976 96.9682 19.208C96.5202 18.424 95.8722 18.032 95.0242 18.032C94.4322 18.032 93.7762 18.224 93.0562 18.608V28.28C93.6642 28.536 94.3202 28.664 95.0242 28.664ZM108.512 17.096C109.552 17.096 110.44 17.312 111.176 17.744C111.912 18.16 112.472 18.736 112.856 19.472C113.256 20.192 113.456 21.016 113.456 21.944C113.456 22.12 113.448 22.304 113.432 22.496C113.416 22.672 113.384 22.832 113.336 22.976H106.184C106.2 24.704 106.504 25.952 107.096 26.72C107.704 27.472 108.6 27.848 109.784 27.848C110.584 27.848 111.232 27.72 111.728 27.464C112.224 27.208 112.688 26.832 113.12 26.336L113.36 26.552C112.864 27.432 112.2 28.12 111.368 28.616C110.552 29.112 109.568 29.36 108.416 29.36C107.28 29.36 106.272 29.12 105.392 28.64C104.512 28.144 103.824 27.44 103.328 26.528C102.832 25.616 102.584 24.528 102.584 23.264C102.584 21.952 102.872 20.84 103.448 19.928C104.024 19 104.76 18.296 105.656 17.816C106.568 17.336 107.52 17.096 108.512 17.096ZM108.44 17.576C107.976 17.576 107.576 17.72 107.24 18.008C106.92 18.28 106.664 18.776 106.472 19.496C106.296 20.2 106.2 21.2 106.184 22.496H110.288C110.448 20.752 110.384 19.496 110.096 18.728C109.808 17.96 109.256 17.576 108.44 17.576ZM118.804 29.36C118.02 29.36 117.316 29.264 116.692 29.072C116.068 28.896 115.492 28.672 114.964 28.4L114.988 25.544H115.228L116.044 26.984C116.396 27.624 116.78 28.104 117.196 28.424C117.628 28.728 118.172 28.88 118.828 28.88C119.596 28.88 120.212 28.712 120.676 28.376C121.156 28.024 121.396 27.56 121.396 26.984C121.396 26.456 121.228 26.024 120.892 25.688C120.556 25.352 119.932 25.048 119.02 24.776L118.012 24.464C117.036 24.176 116.268 23.728 115.708 23.12C115.148 22.512 114.868 21.768 114.868 20.888C114.868 19.832 115.284 18.936 116.116 18.2C116.948 17.464 118.14 17.096 119.692 17.096C120.316 17.096 120.9 17.168 121.444 17.312C122.004 17.44 122.54 17.64 123.052 17.912L122.908 20.504H122.668L121.828 19.016C121.524 18.488 121.22 18.12 120.916 17.912C120.628 17.688 120.188 17.576 119.596 17.576C119.052 17.576 118.54 17.728 118.06 18.032C117.58 18.336 117.34 18.768 117.34 19.328C117.34 19.872 117.54 20.304 117.94 20.624C118.356 20.944 118.964 21.24 119.764 21.512L120.844 21.824C121.996 22.176 122.82 22.664 123.316 23.288C123.812 23.896 124.06 24.632 124.06 25.496C124.06 26.664 123.596 27.6 122.668 28.304C121.756 29.008 120.468 29.36 118.804 29.36Z" fill="black"/>
</svg>
