<svg width="100" height="100" viewBox="0 0 100 100" fill="none" xmlns="http://www.w3.org/2000/svg">
<rect width="100" height="100" rx="10" fill="white"></rect>
<path d="M34.368 72V61.632H17.536V57.984L36.288 30.912H42.56V56.896H48.64V61.632H42.56V72H34.368ZM20.352 56.896H34.368V36.736L20.352 56.896ZM65.6055 73.152C63.2588 73.152 60.8695 72.8533 58.4375 72.256C56.0055 71.7013 53.9788 70.9547 52.3575 70.016L52.6775 61.312H53.3175L55.3015 65.472C55.8988 66.6667 56.5388 67.7333 57.2215 68.672C57.9042 69.568 58.8428 70.272 60.0375 70.784C60.8908 71.2107 61.7015 71.5093 62.4695 71.68C63.2802 71.808 64.1762 71.872 65.1575 71.872C67.7602 71.872 69.8082 71.168 71.3015 69.76C72.8375 68.352 73.6055 66.5387 73.6055 64.32C73.6055 62.2293 73.0935 60.608 72.0695 59.456C71.0455 58.2613 69.4028 57.1093 67.1415 56L64.5175 54.848C60.8482 53.2267 57.9682 51.3707 55.8775 49.28C53.8295 47.1467 52.8055 44.3307 52.8055 40.832C52.8055 38.3147 53.4455 36.1387 54.7255 34.304C56.0482 32.4693 57.8615 31.0613 60.1655 30.08C62.5122 29.0987 65.2428 28.608 68.3575 28.608C70.6188 28.608 72.7522 28.9067 74.7575 29.504C76.8055 30.1013 78.5762 30.912 80.0695 31.936L79.6855 39.616H79.0455L76.4215 34.816C75.6962 33.3227 74.9708 32.2773 74.2455 31.68C73.5202 31.04 72.6882 30.592 71.7495 30.336C71.1948 30.1653 70.6828 30.0587 70.2135 30.016C69.7442 29.9307 69.1468 29.888 68.4215 29.888C66.2455 29.888 64.4108 30.528 62.9175 31.808C61.4242 33.0453 60.6775 34.7307 60.6775 36.864C60.6775 39.04 61.2535 40.7893 62.4055 42.112C63.5575 43.392 65.2428 44.544 67.4615 45.568L70.4055 46.848C74.5015 48.64 77.4455 50.56 79.2375 52.608C81.0295 54.6133 81.9255 57.216 81.9255 60.416C81.9255 64.1707 80.4962 67.2427 77.6375 69.632C74.8215 71.9787 70.8108 73.152 65.6055 73.152Z" fill="black"></path>
<path d="M34.368 72H33.368V73H34.368V72ZM34.368 61.632H35.368V60.632H34.368V61.632ZM17.536 61.632H16.536V62.632H17.536V61.632ZM17.536 57.984L16.7139 57.4146L16.536 57.6715V57.984H17.536ZM36.288 30.912V29.912H35.7642L35.4659 30.3426L36.288 30.912ZM42.56 30.912H43.56V29.912H42.56V30.912ZM42.56 56.896H41.56V57.896H42.56V56.896ZM48.64 56.896H49.64V55.896H48.64V56.896ZM48.64 61.632V62.632H49.64V61.632H48.64ZM42.56 61.632V60.632H41.56V61.632H42.56ZM42.56 72V73H43.56V72H42.56ZM20.352 56.896L19.5309 56.3252L18.4388 57.896H20.352V56.896ZM34.368 56.896V57.896H35.368V56.896H34.368ZM34.368 36.736H35.368V33.5458L33.5469 36.1652L34.368 36.736ZM35.368 72V61.632H33.368V72H35.368ZM34.368 60.632H17.536V62.632H34.368V60.632ZM18.536 61.632V57.984H16.536V61.632H18.536ZM18.3581 58.5534L37.1101 31.4814L35.4659 30.3426L16.7139 57.4146L18.3581 58.5534ZM36.288 31.912H42.56V29.912H36.288V31.912ZM41.56 30.912V56.896H43.56V30.912H41.56ZM42.56 57.896H48.64V55.896H42.56V57.896ZM47.64 56.896V61.632H49.64V56.896H47.64ZM48.64 60.632H42.56V62.632H48.64V60.632ZM41.56 61.632V72H43.56V61.632H41.56ZM42.56 71H34.368V73H42.56V71ZM20.352 57.896H34.368V55.896H20.352V57.896ZM35.368 56.896V36.736H33.368V56.896H35.368ZM33.5469 36.1652L19.5309 56.3252L21.1731 57.4668L35.1891 37.3068L33.5469 36.1652ZM58.4375 72.256L58.676 71.2849L58.668 71.2829L58.6599 71.281L58.4375 72.256ZM52.3575 70.016L51.3582 69.9793L51.3361 70.5802L51.8565 70.8814L52.3575 70.016ZM52.6775 61.312V60.312H51.7136L51.6782 61.2753L52.6775 61.312ZM53.3175 61.312L54.2201 60.8815L53.9485 60.312H53.3175V61.312ZM55.3015 65.472L54.3989 65.9025L54.4029 65.9109L54.4071 65.9192L55.3015 65.472ZM57.2215 68.672L56.4128 69.2602L56.4193 69.2692L56.4261 69.278L57.2215 68.672ZM60.0375 70.784L60.4847 69.8896L60.4584 69.8764L60.4314 69.8649L60.0375 70.784ZM62.4695 71.68L62.2526 72.6562L62.2829 72.6629L62.3135 72.6678L62.4695 71.68ZM71.3015 69.76L70.6257 69.0228L70.6155 69.0324L71.3015 69.76ZM72.0695 59.456L71.3102 60.1068L71.3161 60.1136L71.3221 60.1204L72.0695 59.456ZM67.1415 56L67.5819 55.1022L67.5629 55.0929L67.5435 55.0844L67.1415 56ZM64.5175 54.848L64.1133 55.7627L64.1155 55.7636L64.5175 54.848ZM55.8775 49.28L55.1561 49.9725L55.1632 49.9799L55.1704 49.9871L55.8775 49.28ZM54.7255 34.304L53.9143 33.7192L53.9098 33.7255L53.9054 33.7318L54.7255 34.304ZM60.1655 30.08L59.7797 29.1574L59.7736 29.16L60.1655 30.08ZM74.7575 29.504L74.472 30.4624L74.4775 30.464L74.7575 29.504ZM80.0695 31.936L81.0683 31.9859L81.0962 31.4275L80.635 31.1113L80.0695 31.936ZM79.6855 39.616V40.616H80.6368L80.6843 39.6659L79.6855 39.616ZM79.0455 39.616L78.1681 40.0957L78.4525 40.616H79.0455V39.616ZM76.4215 34.816L75.522 35.2529L75.5325 35.2746L75.5441 35.2957L76.4215 34.816ZM74.2455 31.68L73.5839 32.4298L73.5966 32.4411L73.6098 32.4519L74.2455 31.68ZM71.7495 30.336L71.4554 31.2918L71.4708 31.2965L71.4864 31.3008L71.7495 30.336ZM70.2135 30.016L70.0346 30.9999L70.0785 31.0079L70.123 31.0119L70.2135 30.016ZM62.9175 31.808L63.5555 32.578L63.562 32.5727L63.5683 32.5673L62.9175 31.808ZM62.4055 42.112L61.6514 42.7688L61.6568 42.7749L61.6622 42.781L62.4055 42.112ZM67.4615 45.568L67.0424 46.476L67.0526 46.4806L67.0628 46.4851L67.4615 45.568ZM70.4055 46.848L70.8063 45.9318L70.8042 45.9309L70.4055 46.848ZM79.2375 52.608L78.4849 53.2665L78.4918 53.2743L79.2375 52.608ZM77.6375 69.632L78.2777 70.4002L78.2788 70.3993L77.6375 69.632ZM65.6055 72.152C63.3444 72.152 61.0352 71.8643 58.676 71.2849L58.199 73.2271C60.7038 73.8424 63.1733 74.152 65.6055 74.152V72.152ZM58.6599 71.281C56.2954 70.7418 54.3697 70.0254 52.8585 69.1506L51.8565 70.8814C53.588 71.8839 55.7156 72.6609 58.2151 73.231L58.6599 71.281ZM53.3568 70.0527L53.6768 61.3487L51.6782 61.2753L51.3582 69.9793L53.3568 70.0527ZM52.6775 62.312H53.3175V60.312H52.6775V62.312ZM52.4149 61.7425L54.3989 65.9025L56.2041 65.0415L54.2201 60.8815L52.4149 61.7425ZM54.4071 65.9192C55.0254 67.156 55.6933 68.2709 56.4128 69.2602L58.0302 68.0838C57.3844 67.1958 56.7722 66.1774 56.1959 65.0248L54.4071 65.9192ZM56.4261 69.278C57.2285 70.3312 58.315 71.1337 59.6436 71.7031L60.4314 69.8649C59.3707 69.4103 58.5799 68.8048 58.0169 68.066L56.4261 69.278ZM59.5903 71.6784C60.5018 72.1342 61.39 72.4645 62.2526 72.6562L62.6864 70.7038C62.013 70.5542 61.2798 70.2871 60.4847 69.8896L59.5903 71.6784ZM62.3135 72.6678C63.1846 72.8053 64.1337 72.872 65.1575 72.872V70.872C64.2186 70.872 63.3757 70.8107 62.6255 70.6922L62.3135 72.6678ZM65.1575 72.872C67.944 72.872 70.2626 72.114 71.9875 70.4876L70.6155 69.0324C69.3538 70.222 67.5764 70.872 65.1575 70.872V72.872ZM71.9772 70.4972C73.7344 68.8864 74.6055 66.7986 74.6055 64.32H72.6055C72.6055 66.2788 71.9406 67.8176 70.6258 69.0228L71.9772 70.4972ZM74.6055 64.32C74.6055 62.0725 74.0539 60.1833 72.8169 58.7916L71.3221 60.1204C72.1331 61.0327 72.6055 62.3862 72.6055 64.32H74.6055ZM72.8288 58.8052C71.6791 57.464 69.9004 56.2396 67.5819 55.1022L66.7011 56.8978C68.9052 57.9791 70.4119 59.0587 71.3102 60.1068L72.8288 58.8052ZM67.5435 55.0844L64.9195 53.9324L64.1155 55.7636L66.7395 56.9156L67.5435 55.0844ZM64.9217 53.9333C61.3275 52.3452 58.5629 50.5512 56.5846 48.5729L55.1704 49.9871C57.3734 52.1901 60.3688 54.1081 64.1133 55.7627L64.9217 53.9333ZM56.5989 48.5875C54.7618 46.6739 53.8055 44.123 53.8055 40.832H51.8055C51.8055 44.5383 52.8972 47.6195 55.1561 49.9725L56.5989 48.5875ZM53.8055 40.832C53.8055 38.4926 54.3971 36.5224 55.5456 34.8762L53.9054 33.7318C52.4939 35.7549 51.8055 38.1367 51.8055 40.832H53.8055ZM55.5367 34.8888C56.7416 33.2175 58.4026 31.9178 60.5574 31L59.7736 29.16C57.3204 30.2049 55.3548 31.7211 53.9143 33.7192L55.5367 34.8888ZM60.5513 31.0026C62.7516 30.0824 65.3464 29.608 68.3575 29.608V27.608C65.1393 27.608 62.2727 28.1149 59.7797 29.1574L60.5513 31.0026ZM68.3575 29.608C70.5299 29.608 72.5665 29.8948 74.472 30.4624L75.043 28.5456C72.9378 27.9185 70.7077 27.608 68.3575 27.608V29.608ZM74.4775 30.464C76.4414 31.0368 78.112 31.8062 79.504 32.7607L80.635 31.1113C79.0403 30.0177 77.1696 29.1659 75.0375 28.544L74.4775 30.464ZM79.0707 31.8861L78.6867 39.5661L80.6843 39.6659L81.0683 31.9859L79.0707 31.8861ZM79.6855 38.616H79.0455V40.616H79.6855V38.616ZM79.9229 39.1363L77.2989 34.3363L75.5441 35.2957L78.1681 40.0957L79.9229 39.1363ZM77.321 34.3791C76.5738 32.8408 75.7723 31.6419 74.8812 30.9081L73.6098 32.4519C74.1693 32.9127 74.8185 33.8045 75.522 35.2529L77.321 34.3791ZM74.9071 30.9302C74.0664 30.1884 73.0979 29.6672 72.0126 29.3712L71.4864 31.3008C72.2784 31.5168 72.9739 31.8916 73.5839 32.4298L74.9071 30.9302ZM72.0436 29.3802C71.4372 29.1936 70.8561 29.0703 70.304 29.0201L70.123 31.0119C70.5096 31.047 70.9524 31.137 71.4554 31.2918L72.0436 29.3802ZM70.3924 29.0321C69.842 28.9321 69.1793 28.888 68.4215 28.888V30.888C69.1143 30.888 69.6463 30.9293 70.0346 30.9999L70.3924 29.0321ZM68.4215 28.888C66.034 28.888 63.9609 29.5965 62.2667 31.0487L63.5683 32.5673C64.8607 31.4594 66.457 30.888 68.4215 30.888V28.888ZM62.2795 31.038C60.5321 32.4858 59.6775 34.4667 59.6775 36.864H61.6775C61.6775 34.9947 62.3163 33.6048 63.5555 32.578L62.2795 31.038ZM59.6775 36.864C59.6775 39.2212 60.3053 41.2232 61.6514 42.7688L63.1596 41.4552C62.2017 40.3554 61.6775 38.8588 61.6775 36.864H59.6775ZM61.6622 42.781C62.9346 44.1947 64.7484 45.4172 67.0424 46.476L67.8806 44.66C65.7373 43.6708 64.1804 42.5893 63.1488 41.443L61.6622 42.781ZM67.0628 46.4851L70.0068 47.7651L70.8042 45.9309L67.8602 44.6509L67.0628 46.4851ZM70.0047 47.7642C74.0421 49.5305 76.8327 51.3782 78.4849 53.2665L79.9901 51.9495C78.0583 49.7418 74.9609 47.7495 70.8063 45.9318L70.0047 47.7642ZM78.4918 53.2743C80.09 55.0627 80.9255 57.4126 80.9255 60.416H82.9255C82.9255 57.0194 81.969 54.164 79.9832 51.9417L78.4918 53.2743ZM80.9255 60.416C80.9255 63.8771 79.6255 66.6671 76.9962 68.8647L78.2788 70.3993C81.3668 67.8182 82.9255 64.4643 82.9255 60.416H80.9255ZM76.9973 68.8638C74.4234 71.0087 70.6735 72.152 65.6055 72.152V74.152C70.9481 74.152 75.2196 72.9486 78.2777 70.4002L76.9973 68.8638Z" fill="black"></path>
</svg>
