<svg width="100" height="100" fill="none" xmlns="http://www.w3.org/2000/svg"><rect width="100" height="100" rx="10" fill="#fff"/><path d="M34.368 72V61.632H17.536v-3.648l18.752-27.072h6.272v25.984h6.08v4.736h-6.08V72h-8.192ZM20.352 56.896h14.016v-20.16l-14.016 20.16Zm45.254 16.256c-2.347 0-4.736-.299-7.168-.896-2.433-.555-4.46-1.301-6.08-2.24l.32-8.704h.64l1.983 4.16a22.661 22.661 0 0 0 1.92 3.2c.683.896 1.622 1.6 2.817 2.112.853.427 1.664.725 2.431.896.811.128 1.707.192 2.688.192 2.603 0 4.651-.704 6.145-2.112 1.535-1.408 2.303-3.221 2.303-5.44 0-2.09-.511-3.712-1.535-4.864-1.024-1.195-2.667-2.347-4.928-3.456l-2.624-1.152c-3.67-1.621-6.55-3.477-8.64-5.568-2.048-2.133-3.072-4.95-3.072-8.448 0-2.517.64-4.693 1.92-6.528 1.322-1.835 3.136-3.243 5.44-4.224 2.346-.981 5.077-1.472 8.192-1.472 2.26 0 4.394.299 6.4.896 2.047.597 3.818 1.408 5.312 2.432l-.384 7.68h-.64l-2.625-4.8c-.725-1.493-1.45-2.539-2.175-3.136a6.18 6.18 0 0 0-2.496-1.344 7.605 7.605 0 0 0-1.537-.32c-.469-.085-1.066-.128-1.791-.128-2.176 0-4.011.64-5.505 1.92-1.493 1.237-2.24 2.923-2.24 5.056 0 2.176.577 3.925 1.729 5.248 1.151 1.28 2.837 2.432 5.056 3.456l2.944 1.28c4.095 1.792 7.04 3.712 8.831 5.76 1.793 2.005 2.689 4.608 2.689 7.808 0 3.755-1.43 6.827-4.288 9.216-2.817 2.347-6.827 3.52-12.032 3.52Z" fill="#000"/><path d="M34.368 72h-1v1h1v-1Zm0-10.368h1v-1h-1v1Zm-16.832 0h-1v1h1v-1Zm0-3.648-.822-.57-.178.258v.312h1Zm18.752-27.072v-1h-.524l-.298.43.822.57Zm6.272 0h1v-1h-1v1Zm0 25.984h-1v1h1v-1Zm6.08 0h1v-1h-1v1Zm0 4.736v1h1v-1h-1Zm-6.08 0v-1h-1v1h1Zm0 10.368v1h1v-1h-1ZM20.352 56.896l-.821-.57-1.092 1.57h1.913v-1Zm14.016 0v1h1v-1h-1Zm0-20.16h1v-3.19l-1.821 2.62.821.57Zm1 35.264V61.632h-2V72h2Zm-1-11.368H17.536v2h16.832v-2Zm-15.832 1v-3.648h-2v3.648h2Zm-.178-3.079L37.11 31.481l-1.644-1.138-18.752 27.072 1.644 1.138Zm17.93-26.641h6.272v-2h-6.272v2Zm5.272-1v25.984h2V30.912h-2Zm1 26.984h6.08v-2h-6.08v2Zm5.08-1v4.736h2v-4.736h-2Zm1 3.736h-6.08v2h6.08v-2Zm-7.08 1V72h2V61.632h-2Zm1 9.368h-8.192v2h8.192v-2ZM20.352 57.896h14.016v-2H20.352v2Zm15.016-1v-20.16h-2v20.16h2Zm-1.821-20.73L19.53 56.325l1.642 1.14 14.016-20.16-1.642-1.14Zm24.89 36.09.239-.971-.008-.002-.008-.002-.222.975Zm-6.08-2.24-.999-.037-.022.601.52.301.502-.865Zm.32-8.704v-1h-.963l-.036.963 1 .037Zm.64 0 .903-.43-.271-.57h-.631v1Zm1.984 4.16-.902.43.004.009.004.008.895-.447Zm1.92 3.2-.808.588.006.01.007.008.795-.606Zm2.817 2.112.447-.894-.027-.014-.027-.011-.393.919Zm2.431.896-.216.976.03.007.03.005.156-.988Zm8.833-1.92-.676-.737-.01.01.686.727Zm.767-10.304-.759.65.006.008.006.006.748-.664ZM67.142 56l.44-.898-.018-.01-.02-.008-.402.916Zm-2.624-1.152-.404.915h.002l.403-.915Zm-8.64-5.568-.72.692.006.008.007.007.707-.707Zm-1.152-14.976-.81-.585-.005.006-.005.007.82.572Zm5.44-4.224-.385-.923-.006.003.392.92Zm14.592-.576-.285.958.006.002.28-.96Zm5.313 2.432.998.05.028-.559-.461-.316-.566.825Zm-.384 7.68v1h.95l.048-.95-.998-.05Zm-.64 0-.878.48.284.52h.594v-1Zm-2.625-4.8-.899.437.01.022.012.02.877-.479Zm-2.175-3.136-.662.75.013.011.013.01.636-.771Zm-2.496-1.344-.295.956.016.005.015.004.263-.965Zm-1.537-.32-.178.984.044.008.044.004.09-.996Zm-7.295 1.792.638.77.006-.005.006-.006-.65-.759Zm-.512 10.304-.755.657.006.006.005.006.744-.669Zm5.056 3.456-.42.908.01.005.01.004.4-.917Zm2.944 1.28.4-.916-.002-.001-.398.917Zm8.831 5.76-.752.659.007.007.745-.666Zm-1.6 17.024.64.768h.002l-.641-.768Zm-12.031 2.52c-2.262 0-4.57-.288-6.93-.867l-.477 1.942c2.505.615 4.974.925 7.407.925v-2Zm-6.946-.871c-2.365-.54-4.29-1.256-5.801-2.13l-1.003 1.73c1.732 1.003 3.86 1.78 6.36 2.35l.444-1.95Zm-5.303-1.228.32-8.704-1.999-.074-.32 8.704 1.999.074Zm-.68-7.741h.64v-2h-.64v2Zm-.262-.57 1.984 4.16 1.805-.86-1.984-4.16-1.805.86Zm1.992 4.177a23.654 23.654 0 0 0 2.006 3.341l1.617-1.176a21.673 21.673 0 0 1-1.834-3.06l-1.789.895Zm2.02 3.359c.801 1.053 1.888 1.856 3.217 2.425l.787-1.838c-1.06-.455-1.851-1.06-2.414-1.799l-1.59 1.212Zm3.163 2.4c.912.456 1.8.787 2.663.978l.433-1.952c-.673-.15-1.406-.417-2.201-.814l-.895 1.788Zm2.723.99c.872.137 1.82.204 2.844.204v-2c-.938 0-1.781-.061-2.531-.18l-.313 1.976Zm2.844.204c2.787 0 5.106-.758 6.83-2.384l-1.371-1.456c-1.262 1.19-3.04 1.84-5.459 1.84v2Zm6.82-2.375c1.757-1.61 2.629-3.698 2.629-6.177h-2c0 1.959-.665 3.498-1.98 4.703l1.351 1.474Zm2.629-6.177c0-2.247-.552-4.137-1.79-5.528l-1.494 1.328c.811.913 1.284 2.266 1.284 4.2h2Zm-1.777-5.515c-1.15-1.341-2.929-2.565-5.247-3.703l-.88 1.796c2.203 1.081 3.71 2.16 4.608 3.209l1.519-1.302Zm-5.285-3.72-2.624-1.153-.805 1.832 2.625 1.152.803-1.832Zm-2.622-1.152c-3.594-1.588-6.36-3.382-8.337-5.36l-1.415 1.414c2.203 2.203 5.199 4.121 8.943 5.776l.809-1.83Zm-8.323-5.346c-1.837-1.913-2.793-4.464-2.793-7.755h-2c0 3.706 1.091 6.788 3.35 9.14l1.443-1.385Zm-2.793-7.755c0-2.34.591-4.31 1.74-5.956l-1.64-1.144c-1.412 2.023-2.1 4.405-2.1 7.1h2Zm1.73-5.943c1.206-1.672 2.867-2.971 5.021-3.889l-.783-1.84c-2.454 1.045-4.42 2.561-5.86 4.56l1.623 1.169Zm5.015-3.886c2.2-.92 4.795-1.395 7.806-1.395v-2c-3.218 0-6.084.507-8.577 1.55l.771 1.845Zm7.806-1.395c2.173 0 4.21.287 6.115.854l.571-1.916c-2.105-.627-4.335-.938-6.686-.938v2Zm6.12.856c1.964.573 3.635 1.342 5.027 2.297l1.131-1.65c-1.595-1.093-3.465-1.945-5.598-2.567l-.56 1.92Zm4.594 1.422-.384 7.68 1.997.1.384-7.68-1.997-.1Zm.615 6.73h-.64v2h.64v-2Zm.237.52-2.624-4.8-1.755.96 2.624 4.8 1.755-.96ZM77.32 34.38c-.747-1.538-1.549-2.737-2.44-3.47l-1.271 1.543c.56.46 1.209 1.352 1.912 2.8l1.799-.873Zm-2.414-3.449a7.18 7.18 0 0 0-2.894-1.559l-.527 1.93c.792.216 1.488.59 2.098 1.129l1.323-1.5Zm-2.863-1.55a8.596 8.596 0 0 0-1.74-.36l-.181 1.992c.387.035.83.125 1.332.28l.589-1.912Zm-1.652-.348c-.55-.1-1.213-.144-1.97-.144v2c.692 0 1.224.041 1.613.112l.357-1.968Zm-1.97-.144c-2.388 0-4.461.708-6.155 2.16l1.301 1.52c1.293-1.109 2.889-1.68 4.853-1.68v-2Zm-6.142 2.15c-1.748 1.448-2.602 3.429-2.602 5.826h2c0-1.87.638-3.26 1.878-4.286l-1.276-1.54Zm-2.602 5.826c0 2.357.627 4.36 1.973 5.905l1.509-1.314c-.958-1.1-1.482-2.596-1.482-4.591h-2Zm1.984 5.917c1.273 1.414 3.086 2.636 5.38 3.695l.839-1.816c-2.144-.99-3.7-2.07-4.732-3.217l-1.487 1.338Zm5.4 3.704 2.945 1.28.797-1.834-2.944-1.28-.797 1.834Zm2.943 1.28c4.037 1.766 6.828 3.613 8.48 5.502l1.505-1.318c-1.932-2.207-5.03-4.2-9.184-6.017l-.801 1.832Zm8.487 5.51c1.598 1.788 2.433 4.138 2.433 7.141h2c0-3.397-.956-6.252-2.942-8.474l-1.491 1.332Zm2.433 7.141c0 3.461-1.3 6.251-3.929 8.449l1.283 1.534c3.088-2.58 4.647-5.935 4.647-9.983h-2Zm-3.928 8.448c-2.574 2.145-6.323 3.288-11.391 3.288v2c5.342 0 9.614-1.203 12.672-3.752l-1.28-1.536Z" fill="#000"/></svg>