<svg width="136" height="50" fill="none" xmlns="http://www.w3.org/2000/svg"><path d="m21.5 10 4.578 8.963 11.114 1.056-8.285 6.596 2.291 9.616-9.698-4.887-9.698 4.887 2.291-9.616-8.285-6.596 11.114-1.056L21.5 10ZM44.888 29v-3.888h-6.312v-1.368l7.032-10.152h2.352v9.744h2.28v1.776h-2.28V29h-3.072Zm-5.256-5.664h5.256v-7.56l-5.256 7.56Zm16.97 6.096c-.88 0-1.776-.112-2.688-.336-.912-.208-1.672-.488-2.28-.84l.12-3.264h.24l.744 1.56a8.5 8.5 0 0 0 .72 1.2c.256.336.608.6 1.056.792.32.16.624.272.912.336.304.048.64.072 1.008.072.976 0 1.744-.264 2.304-.792.576-.528.864-1.208.864-2.04 0-.784-.192-1.392-.576-1.824-.384-.448-1-.88-1.848-1.296l-.984-.432c-1.376-.608-2.456-1.304-3.24-2.088-.768-.8-1.152-1.856-1.152-3.168 0-.944.24-1.76.72-2.448.496-.688 1.176-1.216 2.04-1.584.88-.368 1.904-.552 3.072-.552.848 0 1.648.112 2.4.336.768.224 1.432.528 1.992.912l-.144 2.88h-.24l-.984-1.8c-.272-.56-.544-.952-.816-1.176a2.318 2.318 0 0 0-.936-.504 2.851 2.851 0 0 0-.576-.12 3.869 3.869 0 0 0-.672-.048c-.816 0-1.504.24-2.064.72-.56.464-.84 1.096-.84 1.896 0 .816.216 1.472.648 1.968.432.48 1.064.912 1.896 1.296l1.104.48c1.536.672 2.64 1.392 3.312 2.16.672.752 1.008 1.728 1.008 2.928 0 1.408-.536 2.56-1.608 3.456-1.056.88-2.56 1.32-4.512 1.32Zm13.26-.072c-1.088 0-2.08-.232-2.976-.696a5.45 5.45 0 0 1-2.112-2.064c-.512-.912-.768-2.024-.768-3.336 0-1.296.28-2.4.84-3.312a5.671 5.671 0 0 1 2.28-2.112 6.747 6.747 0 0 1 3.144-.744c.928 0 1.712.152 2.352.456.64.304 1.128.704 1.464 1.2.336.48.504.984.504 1.512 0 .448-.136.8-.408 1.056-.272.24-.624.36-1.056.36-.464 0-.84-.168-1.128-.504-.288-.336-.456-.776-.504-1.32a5.122 5.122 0 0 1 .024-.888 3.084 3.084 0 0 0 0-.768c-.064-.272-.168-.448-.312-.528-.128-.096-.312-.144-.552-.144-.976 0-1.736.424-2.28 1.272-.528.848-.792 2.2-.792 4.056 0 1.616.296 2.856.888 3.72.608.848 1.536 1.272 2.784 1.272.752 0 1.36-.136 1.824-.408.464-.272.912-.68 1.344-1.224l.24.192c-.4.944-1.016 1.672-1.848 2.184-.832.512-1.816.768-2.952.768Zm11.838 0c-1.216 0-2.272-.248-3.168-.744a5.324 5.324 0 0 1-2.088-2.16c-.48-.928-.72-2.016-.72-3.264 0-1.248.256-2.328.768-3.24a5.527 5.527 0 0 1 2.136-2.112c.912-.496 1.936-.744 3.072-.744 1.136 0 2.152.248 3.048.744.896.48 1.6 1.176 2.112 2.088.528.912.792 2 .792 3.264 0 1.264-.248 2.36-.744 3.288a5.204 5.204 0 0 1-2.064 2.136c-.88.496-1.928.744-3.144.744Zm0-.48c.56 0 1.008-.16 1.344-.48.336-.32.576-.888.72-1.704.16-.816.24-1.968.24-3.456 0-1.504-.08-2.664-.24-3.48-.144-.816-.384-1.384-.72-1.704-.336-.32-.784-.48-1.344-.48s-1.016.16-1.368.48c-.336.32-.584.888-.744 1.704-.144.816-.216 1.976-.216 3.48 0 1.488.072 2.64.216 3.456.16.816.408 1.384.744 1.704.352.32.808.48 1.368.48Zm6.772 5.64v-.24l.288-.096c.592-.16.888-.544.888-1.152V19.976c0-.352-.064-.616-.192-.792-.112-.176-.328-.296-.648-.36l-.336-.072v-.24l4.08-1.392.24.24.216.744a6.88 6.88 0 0 1 1.752-.744 7.746 7.746 0 0 1 2.016-.264c1.376 0 2.464.528 3.264 1.584.816 1.04 1.224 2.536 1.224 4.488 0 1.92-.448 3.432-1.344 4.536-.88 1.104-2.128 1.656-3.744 1.656-1.264 0-2.328-.184-3.192-.552v4.152c0 .64.288 1.04.864 1.2l.456.12v.24h-5.832Zm6.552-5.856c.8 0 1.432-.416 1.896-1.248.48-.832.72-2.216.72-4.152s-.224-3.288-.672-4.056c-.448-.784-1.096-1.176-1.944-1.176-.592 0-1.248.192-1.968.576v9.672a5.02 5.02 0 0 0 1.968.384Zm13.488-11.568c1.04 0 1.928.216 2.664.648a4.161 4.161 0 0 1 1.68 1.728c.4.72.6 1.544.6 2.472 0 .176-.008.36-.024.552a2.125 2.125 0 0 1-.096.48h-7.152c.016 1.728.32 2.976.912 3.744.608.752 1.504 1.128 2.688 1.128.8 0 1.448-.128 1.944-.384s.96-.632 1.392-1.128l.24.216a5.49 5.49 0 0 1-1.992 2.064c-.816.496-1.8.744-2.952.744-1.136 0-2.144-.24-3.024-.72a5.247 5.247 0 0 1-2.064-2.112c-.496-.912-.744-2-.744-3.264 0-1.312.288-2.424.864-3.336.576-.928 1.312-1.632 2.208-2.112a6.053 6.053 0 0 1 2.856-.72Zm-.072.48c-.464 0-.864.144-1.2.432-.32.272-.576.768-.768 1.488-.176.704-.272 1.704-.288 3h4.104c.16-1.744.096-3-.192-3.768-.288-.768-.84-1.152-1.656-1.152Zm10.364 11.784c-.784 0-1.488-.096-2.112-.288a9.24 9.24 0 0 1-1.728-.672l.024-2.856h.24l.816 1.44c.352.64.736 1.12 1.152 1.44.432.304.976.456 1.632.456.768 0 1.384-.168 1.848-.504.48-.352.72-.816.72-1.392 0-.528-.168-.96-.504-1.296-.336-.336-.96-.64-1.872-.912l-1.008-.312c-.976-.288-1.744-.736-2.304-1.344-.56-.608-.84-1.352-.84-2.232 0-1.056.416-1.952 1.248-2.688.832-.736 2.024-1.104 3.576-1.104.624 0 1.208.072 1.752.216.56.128 1.096.328 1.608.6l-.144 2.592h-.24l-.84-1.488c-.304-.528-.608-.896-.912-1.104-.288-.224-.728-.336-1.32-.336-.544 0-1.056.152-1.536.456-.48.304-.72.736-.72 1.296 0 .544.2.976.6 1.296.416.32 1.024.616 1.824.888l1.08.312c1.152.352 1.976.84 2.472 1.464.496.608.744 1.344.744 2.208 0 1.168-.464 2.104-1.392 2.808-.912.704-2.2 1.056-3.864 1.056Z" fill="#000"/></svg>